HIERARCHY
ROOT joint_0
{
	OFFSET 0.000000 0.000000 0.000000
	CHANNELS 6 Xposition Yposition Zposition Zrotation Yrotation Xrotation 
	JOINT joint_1
	{
		OFFSET 4.520508 -1.939880 86.268921
		CHANNELS 3 Zrotation Yrotation Xrotation
		JOINT joint_2
		{
			OFFSET -4.459717 -0.438538 78.934082
			CHANNELS 3 Zrotation Yrotation Xrotation
			JOINT joint_3
			{
				OFFSET -5.197754 -0.781128 78.796997
				CHANNELS 3 Zrotation Yrotation Xrotation
				JOINT joint_4
				{
					OFFSET 2.952026 -3.710571 109.812988
					CHANNELS 3 Zrotation Yrotation Xrotation
					JOINT joint_5
					{
						OFFSET 24.716797 -5.488037 87.903931
						CHANNELS 3 Zrotation Yrotation Xrotation
						End Site
						{
							OFFSET 0.000000 0.000000 0.000000
						}
					}
				}
				JOINT joint_6
				{
					OFFSET -3.154419 -25.484680 60.934937
					CHANNELS 3 Zrotation Yrotation Xrotation
					JOINT joint_7
					{
						OFFSET -28.997192 -144.472229 -32.671997
						CHANNELS 3 Zrotation Yrotation Xrotation
						JOINT joint_8
						{
							OFFSET 19.867676 -18.614380 -249.897949
							CHANNELS 3 Zrotation Yrotation Xrotation
							JOINT joint_9
							{
								OFFSET 5.281982 -13.816650 -264.993042
								CHANNELS 3 Zrotation Yrotation Xrotation
								End Site
								{
									OFFSET 0.000000 0.000000 0.000000
								}
							}
						}
					}
				}
				JOINT joint_10
				{
					OFFSET 6.494995 21.336792 62.257935
					CHANNELS 3 Zrotation Yrotation Xrotation
					JOINT joint_11
					{
						OFFSET 31.106567 145.200745 -27.007935
						CHANNELS 3 Zrotation Yrotation Xrotation
						JOINT joint_12
						{
							OFFSET 29.119141 24.684326 -248.460083
							CHANNELS 3 Zrotation Yrotation Xrotation
							JOINT joint_13
							{
								OFFSET 21.220093 31.248413 -262.703979
								CHANNELS 3 Zrotation Yrotation Xrotation
								End Site
								{
									OFFSET 0.000000 0.000000 0.000000
								}
							}
						}
					}
				}
			}
		}
	}
	JOINT joint_14
	{
		OFFSET -15.458496 -88.861694 -109.593018
		CHANNELS 3 Zrotation Yrotation Xrotation
		JOINT joint_15
		{
			OFFSET -6.193359 6.837952 -506.710999
			CHANNELS 3 Zrotation Yrotation Xrotation
			JOINT joint_16
			{
				OFFSET -35.096680 13.289795 -435.677025
				CHANNELS 3 Zrotation Yrotation Xrotation
				JOINT joint_17
				{
					OFFSET 158.491211 -33.916565 -71.771002
					CHANNELS 3 Zrotation Yrotation Xrotation
					End Site
					{
						OFFSET 0.000000 0.000000 0.000000
					}
				}
			}
		}
	}
	JOINT joint_18
	{
		OFFSET 23.116943 86.574158 -110.082031
		CHANNELS 3 Zrotation Yrotation Xrotation
		JOINT joint_19
		{
			OFFSET -6.125854 -0.283569 -506.757019
			CHANNELS 3 Zrotation Yrotation Xrotation
			JOINT joint_20
			{
				OFFSET -63.240234 11.589966 -432.537994
				CHANNELS 3 Zrotation Yrotation Xrotation
				JOINT joint_21
				{
					OFFSET 156.074219 -41.487305 -73.077999
					CHANNELS 3 Zrotation Yrotation Xrotation
					End Site
					{
						OFFSET 0.000000 0.000000 0.000000
					}
				}
			}
		}
	}
}
MOTION
Frames: 6
Frame Time: 0.016667
-469.375732 817.381470 1140.998047 14.746614 0.761359 0.681336 -0.339268 -2.324448 -1.569559 -0.200839 0.457333 0.318867 -0.245965 -0.447058 -0.231908 -0.381855 0.527734 1.458118 0.000000 0.000000 0.000000 -0.197354 0.788001 -0.160485 0.093048 0.533537 0.820479 -0.150833 1.630636 -1.047098 0.000000 0.000000 0.000000 0.508391 0.461587 0.678180 -0.155800 0.678165 -0.888899 0.411584 1.325491 3.323413 0.000000 0.000000 0.000000 -0.034422 -0.420687 -1.521039 -0.040749 -0.578324 -0.173954 -0.025148 0.969175 0.196134 0.000000 0.000000 0.000000 0.275658 0.600367 0.714171 0.297163 -1.059588 -0.089645 0.300892 0.285227 0.216650 0.000000 0.000000 0.000000 
-469.380371 817.450012 1140.998047 14.740544 0.763361 0.682429 -0.340486 -2.326396 -1.570843 -0.201943 0.457991 0.319173 -0.247108 -0.446464 -0.232123 -0.381929 0.527765 1.458361 0.000000 0.000000 0.000000 -0.199860 0.784185 -0.153724 0.093385 0.530713 0.819066 -0.150619 1.627564 -1.051364 0.000000 0.000000 0.000000 0.510200 0.460316 0.677971 -0.156073 0.676520 -0.889187 0.411467 1.324208 3.324611 0.000000 0.000000 0.000000 -0.031729 -0.424911 -1.523376 -0.037842 -0.573818 -0.180077 -0.022977 0.968377 0.196949 0.000000 0.000000 0.000000 0.278094 0.600582 0.710741 0.299573 -1.061442 -0.093303 0.302714 0.285488 0.217573 0.000000 0.000000 0.000000 
-469.379578 817.521851 1140.998047 14.735420 0.765395 0.682703 -0.341609 -2.327636 -1.571060 -0.203064 0.458786 0.318869 -0.248234 -0.448444 -0.232001 -0.381255 0.531302 1.456735 0.000000 0.000000 0.000000 -0.202352 0.781626 -0.149406 0.094031 0.527922 0.821033 -0.150611 1.626515 -1.056744 0.000000 0.000000 0.000000 0.510224 0.459581 0.679437 -0.156449 0.676363 -0.890795 0.411745 1.325023 3.327988 0.000000 0.000000 0.000000 -0.029412 -0.428071 -1.525434 -0.035363 -0.570621 -0.185128 -0.021092 0.967752 0.197672 0.000000 0.000000 0.000000 0.280479 0.600140 0.707368 0.301906 -1.061181 -0.095450 0.304609 0.283687 0.217983 0.000000 0.000000 0.000000 
-469.371948 817.595093 1140.998047 14.731559 0.767966 0.682662 -0.343220 -2.329976 -1.571360 -0.204654 0.459176 0.318494 -0.249794 -0.448541 -0.231760 -0.380594 0.533707 1.454920 0.000000 0.000000 0.000000 -0.203949 0.778732 -0.145694 0.094785 0.524636 0.824095 -0.150645 1.625880 -1.062208 0.000000 0.000000 0.000000 0.510248 0.458136 0.682156 -0.156802 0.675733 -0.892254 0.412313 1.327983 3.331678 0.000000 0.000000 0.000000 -0.027575 -0.430882 -1.527111 -0.033382 -0.568329 -0.190065 -0.019651 0.967237 0.198217 0.000000 0.000000 0.000000 0.282291 0.598834 0.703903 0.303639 -1.059794 -0.096574 0.306051 0.280712 0.217869 0.000000 0.000000 0.000000 
-469.357452 817.669861 1140.996948 14.727928 0.770375 0.682148 -0.344811 -2.331918 -1.571316 -0.206229 0.460447 0.318431 -0.251430 -0.450130 -0.232265 -0.380236 0.535815 1.454096 0.000000 0.000000 0.000000 -0.205742 0.776519 -0.141251 0.095404 0.522248 0.826712 -0.150546 1.624012 -1.066516 0.000000 0.000000 0.000000 0.510022 0.457585 0.683897 -0.156717 0.675211 -0.890451 0.412658 1.329876 3.333821 0.000000 0.000000 0.000000 -0.025683 -0.432764 -1.528288 -0.031373 -0.566721 -0.195003 -0.018163 0.966501 0.198735 0.000000 0.000000 0.000000 0.284211 0.598588 0.700945 0.305506 -1.059423 -0.097680 0.307664 0.277673 0.217817 0.000000 0.000000 0.000000 
-469.333740 817.744629 1140.994995 14.724659 0.773378 0.681330 -0.347425 -2.334491 -1.572038 -0.208748 0.460235 0.319069 -0.254024 -0.450053 -0.232788 -0.379780 0.536441 1.452632 0.000000 0.000000 0.000000 -0.205181 0.774823 -0.136329 0.096019 0.520927 0.829692 -0.150161 1.618896 -1.070655 0.000000 0.000000 0.000000 0.511690 0.458509 0.683097 -0.155802 0.674091 -0.882500 0.412419 1.329114 3.331652 0.000000 0.000000 0.000000 -0.023769 -0.434074 -1.528796 -0.029372 -0.566483 -0.200300 -0.016667 0.966167 0.199343 0.000000 0.000000 0.000000 0.286018 0.599572 0.698440 0.307295 -1.062047 -0.098978 0.309280 0.276355 0.218225 0.000000 0.000000 0.000000 
